HIERARCHY
ROOT Hips
{
	OFFSET 0.00000 0.00000 0.00000
	CHANNELS 6 Xposition Yposition Zposition Zrotation Yrotation Xrotation 
	JOINT LHipJoint
	{
		OFFSET 0 0 0
		CHANNELS 3 Zrotation Yrotation Xrotation
		JOINT LeftUpLeg
		{
			OFFSET 1.58895 -1.83665 0.71753
			CHANNELS 3 Zrotation Yrotation Xrotation
			JOINT LeftLeg
			{
				OFFSET 2.50528 -6.88321 0.00000
				CHANNELS 3 Zrotation Yrotation Xrotation
				JOINT LeftFoot
				{
					OFFSET 2.63244 -7.23257 0.00000
					CHANNELS 3 Zrotation Yrotation Xrotation
					JOINT LeftToeBase
					{
						OFFSET 0.23691 -0.65090 1.72750
						CHANNELS 3 Zrotation Yrotation Xrotation
						End Site
						{
							OFFSET 0.00000 -0.00000 0.92561
						}
					}
				}
			}
		}
	}
	JOINT RHipJoint
	{
		OFFSET 0 0 0
		CHANNELS 3 Zrotation Yrotation Xrotation
		JOINT RightUpLeg
		{
			OFFSET -1.51435 -1.83665 0.71753
			CHANNELS 3 Zrotation Yrotation Xrotation
			JOINT RightLeg
			{
				OFFSET -2.54551 -6.99375 0.00000
				CHANNELS 3 Zrotation Yrotation Xrotation
				JOINT RightFoot
				{
					OFFSET -2.66027 -7.30903 0.00000
					CHANNELS 3 Zrotation Yrotation Xrotation
					JOINT RightToeBase
					{
						OFFSET -0.22981 -0.63138 2.03959
						CHANNELS 3 Zrotation Yrotation Xrotation
						End Site
						{
							OFFSET -0.00000 -0.00000 1.07060
						}
					}
				}
			}
		}
	}
	JOINT LowerBack
	{
		OFFSET 0 0 0
		CHANNELS 3 Zrotation Yrotation Xrotation
		JOINT Spine
		{
			OFFSET -0.02651 1.86275 -0.11152
			CHANNELS 3 Zrotation Yrotation Xrotation
			JOINT Spine1
			{
				OFFSET 0.01019 1.86224 0.04087
				CHANNELS 3 Zrotation Yrotation Xrotation
				JOINT Neck
				{
					OFFSET 0 0 0
					CHANNELS 3 Zrotation Yrotation Xrotation
					JOINT Neck1
					{
						OFFSET -0.01926 1.80512 0.08867
						CHANNELS 3 Zrotation Yrotation Xrotation
						JOINT Head
						{
							OFFSET 0.05516 1.76451 -0.38475
							CHANNELS 3 Zrotation Yrotation Xrotation
							End Site
							{
								OFFSET 0.01592 1.82587 -0.14001
							}
						}
					}
				}
				JOINT LeftShoulder
				{
					OFFSET 0 0 0
					CHANNELS 3 Zrotation Yrotation Xrotation
					JOINT LeftArm
					{
						OFFSET 3.47116 1.51376 0.14491
						CHANNELS 3 Zrotation Yrotation Xrotation
						JOINT LeftForeArm
						{
							OFFSET 4.78095 -0.00000 0.00000
							CHANNELS 3 Zrotation Yrotation Xrotation
							JOINT LeftHand
							{
								OFFSET 3.58615 -0.00000 -0.00000
								CHANNELS 3 Zrotation Yrotation Xrotation
								JOINT LeftFingerBase
								{
									OFFSET 0 0 0
									CHANNELS 3 Zrotation Yrotation Xrotation
									JOINT LeftHandIndex1
									{
										OFFSET 0.65981 -0.00000 0.00000
										CHANNELS 3 Zrotation Yrotation Xrotation
										End Site
										{
											OFFSET 0.53196 -0.00000 0.00000
										}
									}
								}
								JOINT LThumb
								{
									OFFSET 0 0 0
									CHANNELS 3 Zrotation Yrotation Xrotation
									End Site
									{
										OFFSET 0.54008 -0.00000 0.54008
									}
								}
							}
						}
					}
				}
				JOINT RightShoulder
				{
					OFFSET 0 0 0
					CHANNELS 3 Zrotation Yrotation Xrotation
					JOINT RightArm
					{
						OFFSET -3.31725 1.61216 0.35156
						CHANNELS 3 Zrotation Yrotation Xrotation
						JOINT RightForeArm
						{
							OFFSET -4.48913 -0.00000 0.00000
							CHANNELS 3 Zrotation Yrotation Xrotation
							JOINT RightHand
							{
								OFFSET -3.70510 -0.00000 0.00000
								CHANNELS 3 Zrotation Yrotation Xrotation
								JOINT RightFingerBase
								{
									OFFSET 0 0 0
									CHANNELS 3 Zrotation Yrotation Xrotation
									JOINT RightHandIndex1
									{
										OFFSET -0.44914 -0.00000 0.00000
										CHANNELS 3 Zrotation Yrotation Xrotation
										End Site
										{
											OFFSET -0.36211 -0.00000 0.00000
										}
									}
								}
								JOINT RThumb
								{
									OFFSET 0 0 0
									CHANNELS 3 Zrotation Yrotation Xrotation
									End Site
									{
										OFFSET -0.36763 -0.00000 0.36763
									}
								}
							}
						}
					}
				}
			}
		}
	}
}
MOTION
Frames: 14
Frame Time: .0083333
-0.1298 18.5358 6.3171 -1.0478 5.9688 -3.0529 0.0000 0.0000 0.0000 -14.6291 -3.1845 -1.6058 2.0113 8.8895 25.4503 1.3897 -4.1178 -21.3178 8.6106 -16.5505 -54.7334 0.0000 0.0000 0.0000 0.0000 0.0000 0.0000 0.0000 0.0000 0.0000 -0.0000 -0.0000 0.0000 -0.0000 -0.0000 0.0000 0.5251 1.5382 10.2245 0.2063 2.1537 -3.3658 -0.4655 1.0173 -9.3314 -0.5746 -3.3329 -9.5574 -1.8155 -4.1869 10.7160 -0.7536 -2.1933 4.7536 -0.0000 0.0000 0.0000 -88.8214 21.4230 18.5383 26.9202 -38.1030 -9.4499 -0.0000 -0.0000 5.1241 9.2166 -21.5345 -3.4085 -7.1250 0.0000 -0.0000 -12.3217 8.5907 10.5976 -0.0000 0.0000 0.0000 45.1552 1.2785 8.3803 -120.0745 56.2900 -85.7209 0.0000 -0.0000 -59.4498 17.8993 -60.0322 -15.6315 7.1250 -0.0000 -0.0000 97.7769 -66.4684 -72.9595
-0.1204 18.5325 6.3227 -1.0457 5.7486 -3.1254 0.0000 0.0000 0.0000 -14.6884 -3.1381 -1.4469 2.0087 8.8842 25.4338 1.4061 -4.0273 -21.4616 8.5751 -16.5264 -54.6086 0.0000 0.0000 0.0000 0.0000 0.0000 0.0000 0.0000 0.0000 0.0000 -0.0000 -0.0000 0.0000 -0.0000 -0.0000 0.0000 0.5322 1.5451 10.1303 0.1815 2.1609 -3.3610 -0.4942 1.0202 -9.2696 -0.7089 -3.2821 -9.7194 -1.6543 -4.1141 11.0193 -0.6847 -2.1540 4.8814 0.0000 -0.0000 0.0000 -88.7663 21.4192 18.5193 26.9142 -38.0972 -9.4461 -0.0000 -0.0000 5.2002 9.1423 -21.4738 -3.3716 -7.1250 0.0000 -0.0000 -12.3679 8.6573 10.6225 0.0000 -0.0000 0.0000 45.4806 1.1496 8.2393 -120.0144 56.3061 -85.6709 0.0000 -0.0000 -59.2730 17.5958 -59.2734 -15.2492 7.1250 -0.0000 -0.0000 95.9946 -66.5289 -70.9747
-0.1120 18.5290 6.3281 -1.0289 5.5407 -3.2150 0.0000 0.0000 0.0000 -14.7583 -3.0660 -1.2840 2.0068 8.8803 25.4215 1.4259 -3.9243 -21.6338 8.5713 -16.5238 -54.5953 0.0000 0.0000 0.0000 0.0000 0.0000 0.0000 0.0000 0.0000 0.0000 -0.0000 -0.0000 0.0000 -0.0000 -0.0000 0.0000 0.4774 1.5277 10.0383 0.1789 2.1288 -3.3334 -0.4572 1.0086 -9.1876 -0.6927 -3.2311 -9.8963 -1.6879 -4.0387 11.3025 -0.6996 -2.1199 4.9982 -0.0000 0.0000 0.0000 -88.7504 21.3960 18.4989 26.9360 -38.1181 -9.4596 -0.0000 -0.0000 5.1933 9.0944 -21.4874 -3.3557 -7.1250 0.0000 -0.0000 -12.3980 8.6484 10.6519 -0.0000 0.0000 0.0000 45.8015 1.1061 8.1087 -119.9966 56.3108 -85.6560 0.0000 -0.0000 -59.1406 17.3107 -58.8950 -14.9417 7.1250 -0.0000 -0.0000 95.0538 -66.5945 -69.9823
-0.1032 18.5261 6.3335 -1.0089 5.3196 -3.2935 0.0000 0.0000 0.0000 -14.8279 -2.9649 -1.1452 2.0059 8.8783 25.4153 1.4464 -3.8298 -21.8101 8.5818 -16.5309 -54.6323 0.0000 0.0000 0.0000 0.0000 0.0000 0.0000 0.0000 0.0000 0.0000 -0.0000 -0.0000 0.0000 -0.0000 -0.0000 0.0000 0.4219 1.4968 9.9205 0.1763 2.0783 -3.2955 -0.4155 0.9882 -9.0795 -0.6365 -3.1584 -10.0056 -1.7337 -3.9402 11.5074 -0.7206 -2.0732 5.0785 -0.0000 0.0000 0.0000 -88.7470 21.3159 18.4390 26.9201 -38.1029 -9.4498 -0.0000 -0.0000 5.1885 9.1539 -21.6916 -3.4084 -7.1250 0.0000 -0.0000 -12.3622 8.4420 10.6715 -0.0000 0.0000 0.0000 46.1071 1.1229 7.9907 -120.0014 56.3096 -85.6601 0.0000 -0.0000 -58.9424 17.1131 -58.8909 -14.7679 7.1250 -0.0000 -0.0000 94.9742 -66.6570 -69.9708
-0.0939 18.5234 6.3396 -1.0086 5.0721 -3.3557 0.0000 0.0000 0.0000 -14.8623 -2.8076 -1.0403 2.0040 8.8744 25.4031 1.4591 -3.7779 -21.9179 8.5684 -16.5218 -54.5851 0.0000 0.0000 0.0000 0.0000 0.0000 0.0000 0.0000 0.0000 0.0000 -0.0000 -0.0000 0.0000 -0.0000 -0.0000 0.0000 0.4084 1.4845 9.7855 0.1585 2.0575 -3.2699 -0.4186 0.9793 -8.9726 -0.6173 -3.0989 -10.0923 -1.7161 -3.8625 11.6994 -0.7167 -2.0339 5.1532 -0.0000 0.0000 0.0000 -88.6931 21.2134 18.3996 26.8635 -38.0487 -9.4149 -0.0000 -0.0000 5.2437 9.1467 -21.8531 -3.4298 -7.1250 0.0000 -0.0000 -12.3681 8.2839 10.7165 -0.0000 0.0000 0.0000 46.4086 1.1362 7.8478 -119.9104 56.3338 -85.5843 0.0000 -0.0000 -58.5505 17.1313 -58.9452 -14.7919 7.1250 -0.0000 -0.0000 95.1021 -66.6550 -70.1138
-0.0858 18.5209 6.3468 -1.0084 4.8342 -3.3899 0.0000 0.0000 0.0000 -14.8888 -2.6620 -0.9598 2.0004 8.8669 25.3800 1.4690 -3.7146 -22.0054 8.5611 -16.5168 -54.5594 0.0000 0.0000 0.0000 0.0000 0.0000 0.0000 0.0000 0.0000 0.0000 -0.0000 -0.0000 0.0000 -0.0000 -0.0000 0.0000 0.3811 1.4727 9.6374 0.1347 2.0352 -3.2784 -0.4205 0.9699 -8.8954 -0.5807 -3.0654 -10.1311 -1.7224 -3.8199 11.9068 -0.7249 -2.0127 5.2236 0.0000 0.0000 0.0000 -88.6238 21.1799 18.3830 26.8522 -38.0379 -9.4079 -0.0000 -0.0000 5.2774 9.0860 -21.8743 -3.4098 -7.1250 0.0000 -0.0000 -12.4063 8.2688 10.7551 0.0000 0.0000 0.0000 46.7156 1.1002 7.7380 -119.8192 56.3579 -85.5084 0.0000 -0.0000 -58.2439 17.2075 -59.0972 -14.8814 7.1250 -0.0000 -0.0000 95.4682 -66.6410 -70.5133
-0.0777 18.5191 6.3552 -0.9637 4.6045 -3.3957 0.0000 0.0000 0.0000 -14.9719 -2.5447 -0.8812 1.9937 8.8529 25.3363 1.4804 -3.6216 -22.1094 8.5580 -16.5147 -54.5486 0.0000 0.0000 0.0000 0.0000 0.0000 0.0000 0.0000 0.0000 0.0000 -0.0000 -0.0000 0.0000 -0.0000 -0.0000 0.0000 0.2924 1.4433 9.4389 0.1135 1.9816 -3.3001 -0.3787 0.9491 -8.8056 -0.4861 -3.0136 -10.1323 -1.8126 -3.7509 12.1178 -0.7658 -1.9816 5.2862 -0.0000 0.0000 0.0000 -88.5773 21.2012 18.4066 26.8720 -38.0569 -9.4201 -0.0000 -0.0000 5.2273 9.1566 -21.9636 -3.4500 -7.1250 0.0000 -0.0000 -12.3629 8.1743 10.7393 -0.0000 0.0000 0.0000 46.9940 1.0582 7.7098 -119.7442 56.3777 -85.4460 0.0000 -0.0000 -58.1167 17.1086 -59.1318 -14.7996 7.1250 -0.0000 -0.0000 95.5112 -66.6746 -70.6046
-0.0684 18.5166 6.3649 -0.9388 4.3615 -3.4437 0.0000 0.0000 0.0000 -15.0304 -2.3641 -0.7541 1.9827 8.8300 25.2649 1.4900 -3.5687 -22.1932 8.5411 -16.5031 -54.4890 0.0000 0.0000 0.0000 0.0000 0.0000 0.0000 0.0000 0.0000 0.0000 -0.0000 -0.0000 0.0000 -0.0000 -0.0000 0.0000 0.2423 1.4273 9.2342 0.1033 1.9519 -3.2823 -0.3502 0.9382 -8.6680 -0.4085 -2.9720 -10.2195 -1.9213 -3.6889 12.3476 -0.8122 -1.9563 5.3694 -0.0000 0.0000 0.0000 -88.5625 21.1498 18.4188 26.8631 -38.0483 -9.4146 -0.0000 -0.0000 5.2106 9.1972 -22.0209 -3.4741 -7.1250 0.0000 -0.0000 -12.3381 8.1141 10.7316 -0.0000 0.0000 0.0000 47.2473 1.1597 7.6010 -119.4927 56.4436 -85.2364 0.0000 -0.0000 -57.9410 17.0528 -59.2286 -14.7648 7.1250 -0.0000 -0.0000 95.7088 -66.6982 -70.8601
-0.0589 18.5128 6.3745 -0.8844 4.1303 -3.5113 0.0000 0.0000 0.0000 -15.1241 -2.2067 -0.5768 1.9686 8.8004 25.1728 1.5018 -3.5566 -22.2865 8.5086 -16.4809 -54.3745 0.0000 0.0000 0.0000 0.0000 0.0000 0.0000 0.0000 0.0000 0.0000 -0.0000 -0.0000 0.0000 -0.0000 -0.0000 0.0000 0.1966 1.4336 9.0355 0.0684 1.9506 -3.2365 -0.3548 0.9402 -8.5028 -0.4191 -2.9646 -10.3612 -1.9358 -3.6715 12.5949 -0.8195 -1.9505 5.4706 -0.0000 -0.0000 0.0000 -88.5470 20.9919 18.3686 26.8085 -37.9959 -9.3810 -0.0000 -0.0000 5.3051 9.0985 -21.9906 -3.4318 -7.1250 0.0000 -0.0000 -12.3995 8.1533 10.7779 -0.0000 -0.0000 0.0000 47.5071 1.3153 7.3640 -119.1104 56.5424 -84.9177 0.0000 -0.0000 -57.6793 17.4920 -59.4436 -15.1833 7.1250 -0.0000 -0.0000 96.3376 -66.5712 -71.4219
-0.0495 18.5088 6.3829 -0.7886 3.9050 -3.5509 0.0000 0.0000 0.0000 -15.2768 -2.1263 -0.3979 1.9532 8.7679 25.0719 1.5198 -3.5301 -22.4300 8.4532 -16.4427 -54.1790 0.0000 0.0000 0.0000 0.0000 0.0000 0.0000 0.0000 0.0000 0.0000 -0.0000 -0.0000 0.0000 -0.0000 -0.0000 0.0000 0.1069 1.4268 8.8335 0.0168 1.9257 -3.2200 -0.3490 0.9323 -8.3685 -0.4051 -2.9266 -10.4185 -1.9309 -3.6204 12.8316 -0.8205 -1.9254 5.5546 -0.0000 -0.0000 0.0000 -88.5086 20.8793 18.3081 26.7756 -37.9644 -9.3608 -0.0000 -0.0000 5.3332 9.0524 -22.0572 -3.4240 -7.1250 0.0000 -0.0000 -12.4289 8.0922 10.8201 -0.0000 -0.0000 0.0000 47.7782 1.2845 7.2432 -118.9572 56.5815 -84.7899 0.0000 -0.0000 -57.4647 17.8401 -59.4503 -15.4914 7.1250 -0.0000 -0.0000 96.4702 -66.4617 -71.4373
-0.0405 18.5058 6.3913 -0.7612 3.6424 -3.5838 0.0000 0.0000 0.0000 -15.3627 -2.0645 -0.2250 1.9375 8.7346 24.9686 1.5398 -3.4232 -22.6020 8.4065 -16.4102 -54.0140 0.0000 0.0000 0.0000 0.0000 0.0000 0.0000 0.0000 0.0000 0.0000 -0.0000 -0.0000 0.0000 -0.0000 -0.0000 0.0000 0.0708 1.4003 8.6360 -0.0103 1.8834 -3.2269 -0.3452 0.9136 -8.2612 -0.3413 -2.8584 -10.4145 -1.9456 -3.5346 13.0322 -0.8313 -1.8822 5.6160 -0.0000 -0.0000 0.0000 -88.4823 20.8286 18.2365 26.7895 -37.9778 -9.3693 -0.0000 -0.0000 5.3006 9.1257 -22.1208 -3.4615 -7.1250 0.0000 -0.0000 -12.3837 8.0226 10.7962 -0.0000 -0.0000 0.0000 48.0590 1.2181 7.2864 -118.9259 56.5894 -84.7637 0.0000 -0.0000 -57.2902 17.7125 -59.2637 -15.3505 7.1250 -0.0000 -0.0000 96.0132 -66.4914 -70.9489
-0.0307 18.5033 6.4021 -0.7212 3.3646 -3.6115 0.0000 0.0000 0.0000 -15.4639 -1.9717 -0.0610 1.9231 8.7041 24.8740 1.5593 -3.2817 -22.7766 8.4081 -16.4114 -54.0196 0.0000 0.0000 0.0000 0.0000 0.0000 0.0000 0.0000 0.0000 0.0000 -0.0000 -0.0000 0.0000 -0.0000 -0.0000 0.0000 0.0259 1.3671 8.3907 -0.0303 1.8319 -3.2099 -0.3260 0.8913 -8.1011 -0.2898 -2.8005 -10.5265 -1.9762 -3.4566 13.3040 -0.8487 -1.8451 5.7195 -0.0000 0.0000 0.0000 -88.5205 20.7216 18.0904 26.7867 -37.9750 -9.3675 -0.0000 -0.0000 5.3196 9.1632 -22.0547 -3.4661 -7.1250 0.0000 -0.0000 -12.3596 8.0841 10.7588 -0.0000 0.0000 0.0000 48.2721 1.3424 7.3172 -118.6781 56.6520 -84.5568 0.0000 -0.0000 -57.0937 17.5962 -59.1549 -15.2317 7.1250 -0.0000 -0.0000 95.7318 -66.5215 -70.6641
-0.0199 18.4997 6.4141 -0.6181 3.1234 -3.6399 0.0000 0.0000 0.0000 -15.6273 -1.8387 0.0853 1.9108 8.6777 24.7921 1.5758 -3.1872 -22.9196 8.4257 -16.4236 -54.0818 0.0000 0.0000 0.0000 0.0000 0.0000 0.0000 0.0000 0.0000 0.0000 -0.0000 -0.0000 0.0000 -0.0000 -0.0000 0.0000 -0.0710 1.3292 8.1419 -0.0580 1.7678 -3.2011 -0.2844 0.8651 -7.9492 -0.4372 -2.7644 -10.8183 -1.8720 -3.3910 13.8310 -0.7985 -1.8150 5.9405 0.0000 -0.0000 0.0000 -88.5870 20.6583 17.9723 26.7959 -37.9839 -9.3732 -0.0000 -0.0000 5.2950 9.1312 -21.9720 -3.4416 -7.1250 0.0000 -0.0000 -12.3789 8.1685 10.7553 0.0000 -0.0000 0.0000 48.4069 1.4672 7.3233 -118.3515 56.7335 -84.2838 0.0000 -0.0000 -56.9060 17.5854 -59.1211 -15.2170 7.1250 -0.0000 -0.0000 95.6531 -66.5228 -70.5756
-0.0166 18.4949 6.4279 -0.5516 3.0324 -3.7723 0.0000 0.0000 0.0000 -15.6882 -1.6468 0.3061 1.8980 8.6503 24.7075 1.5809 -3.2448 -22.9475 8.4301 -16.4266 -54.0973 0.0000 0.0000 0.0000 0.0000 0.0000 0.0000 0.0000 0.0000 0.0000 -0.0000 -0.0000 0.0000 -0.0000 -0.0000 0.0000 -0.2173 1.2606 7.9916 -0.0655 1.6590 -3.1898 -0.1901 0.8197 -7.8540 -0.7423 -2.7377 -11.0905 -1.5957 -3.3375 14.4072 -0.6691 -1.7857 6.1806 0.0000 0.0000 0.0000 -88.6072 20.6323 17.9266 26.7867 -37.9750 -9.3675 -0.0000 -0.0000 5.2886 9.0542 -21.9674 -3.4114 -7.1250 0.0000 -0.0000 -12.4269 8.1803 10.7961 0.0000 0.0000 0.0000 48.5466 1.4909 7.3301 -118.0685 56.8030 -84.0471 0.0000 -0.0000 -56.7347 17.3863 -59.0912 -15.0375 7.1250 -0.0000 -0.0000 95.5171 -66.5839 -70.4972
